@startuml my-state-diagram

skinparam linetype ortho
skinparam shadowing false

[*] -> Submited
Submited -> Opened
Opened -> Closed
Opened -> Reported
Reported -> Closed


' [*] -> State1
' State1 --> State2 : Succeeded
' State1 --> [*] : Aborted
' State2 --> State3 : Succeeded
' State2 --> [*] : Aborted
' state State3 {
'   state "Accumulate Enough Data" as long1
'   long1 : Just a test
'   [*] --> long1
'   long1 --> long1 : New Data
'   long1 --> ProcessData : Enough Data
'   State2 --> [H]: Resume
' }
' State3 --> State2 : Pause
' State2 --> State3[H*]: DeepResume
' State3 --> State3 : Failed
' State3 --> [*] : Succeeded / Save Result
' State3 --> [*] : Aborted
@enduml